<mxfile host="app.diagrams.net" modified="2021-01-31T21:16:03.208Z" agent="5.0 (Windows)" etag="_HO7KhOYFpAMhMy6rjF1" version="14.2.9" type="github">
  <diagram id="DbVc5V-fK6rncteYkJ-Y" name="Page-1">
    <mxGraphModel dx="1422" dy="763" grid="1" gridSize="10" guides="1" tooltips="1" connect="1" arrows="1" fold="1" page="1" pageScale="1" pageWidth="1654" pageHeight="1169" math="0" shadow="0">
      <root>
        <mxCell id="0" />
        <mxCell id="1" parent="0" />
        <mxCell id="kR2SBBLrq5ixYfj6OSFM-1" value="" style="rounded=0;whiteSpace=wrap;html=1;" vertex="1" parent="1">
          <mxGeometry x="560" y="240" width="120" height="60" as="geometry" />
        </mxCell>
      </root>
    </mxGraphModel>
  </diagram>
</mxfile>
